{
	"asset": {
		"generator": "Unity 2018.3.6f1",
		"extras": {
			"exporterVersion" : "2.2.1"
		},
		"version": "2.0"
	},
	"accessors": [
		{
			"bufferView": 2,
			"byteOffset": 0,
			"componentType": 5126,
			"count": 11124,
			"max": [ 3.430976, 1.723578, 1.609643 ],
			"min": [ -3.430976, -1.771279, -1.756603 ],
			"type": "VEC3"
		},
		{
			"bufferView": 2,
			"byteOffset": 133488,
			"componentType": 5126,
			"count": 11124,
			"max": [ 1, 1, 1 ],
			"min": [ -1, -1, -1 ],
			"type": "VEC3"
		},
		{
			"bufferView": 1,
			"byteOffset": 0,
			"componentType": 5126,
			"count": 11124,
			"max": [ 1.064905, 0.9916756 ],
			"min": [ -0.4879983, -0.322217 ],
			"type": "VEC2"
		},
		{
			"bufferView": 3,
			"byteOffset": 0,
			"componentType": 5126,
			"count": 11124,
			"max": [ 1, 1, 1, 1 ],
			"min": [ -1, -1, -1, -1 ],
			"type": "VEC4"
		},
		{
			"bufferView": 0,
			"byteOffset": 0,
			"componentType": 5125,
			"count": 17676,
			"max": [ 8948 ],
			"min": [ 0 ],
			"type": "SCALAR"
		},
		{
			"bufferView": 0,
			"byteOffset": 70704,
			"componentType": 5125,
			"count": 1524,
			"max": [ 9803 ],
			"min": [ 8949 ],
			"type": "SCALAR"
		},
		{
			"bufferView": 0,
			"byteOffset": 76800,
			"componentType": 5125,
			"count": 186,
			"max": [ 9889 ],
			"min": [ 9804 ],
			"type": "SCALAR"
		},
		{
			"bufferView": 0,
			"byteOffset": 77544,
			"componentType": 5125,
			"count": 546,
			"max": [ 10294 ],
			"min": [ 9890 ],
			"type": "SCALAR"
		},
		{
			"bufferView": 0,
			"byteOffset": 79728,
			"componentType": 5125,
			"count": 1140,
			"max": [ 11123 ],
			"min": [ 10295 ],
			"type": "SCALAR"
		},
		{
			"bufferView": 2,
			"byteOffset": 266976,
			"componentType": 5126,
			"count": 800,
			"max": [ 0, 0.5105275, 0.5105269 ],
			"min": [ -0.5932542, -0.5105275, -0.5105279 ],
			"type": "VEC3"
		},
		{
			"bufferView": 2,
			"byteOffset": 276576,
			"componentType": 5126,
			"count": 800,
			"max": [ 1, 1, 1 ],
			"min": [ -1, -1, -1 ],
			"type": "VEC3"
		},
		{
			"bufferView": 1,
			"byteOffset": 88992,
			"componentType": 5126,
			"count": 800,
			"max": [ 0.7269722, 0.9758831 ],
			"min": [ 0.01335892, 0.01335889 ],
			"type": "VEC2"
		},
		{
			"bufferView": 3,
			"byteOffset": 177984,
			"componentType": 5126,
			"count": 800,
			"max": [ 0.957034, 0.8679042, 0.9999865, 1 ],
			"min": [ -0.9981501, -0.8990366, -0.9990726, -1 ],
			"type": "VEC4"
		},
		{
			"bufferView": 0,
			"byteOffset": 84288,
			"componentType": 5125,
			"count": 2610,
			"max": [ 545 ],
			"min": [ 0 ],
			"type": "SCALAR"
		},
		{
			"bufferView": 0,
			"byteOffset": 94728,
			"componentType": 5125,
			"count": 696,
			"max": [ 763 ],
			"min": [ 546 ],
			"type": "SCALAR"
		},
		{
			"bufferView": 0,
			"byteOffset": 97512,
			"componentType": 5125,
			"count": 108,
			"max": [ 799 ],
			"min": [ 764 ],
			"type": "SCALAR"
		},
		{
			"bufferView": 2,
			"byteOffset": 286176,
			"componentType": 5126,
			"count": 4042,
			"max": [ 2.569384, 0.6303031, 10.41783 ],
			"min": [ -2.499874, -0.1785511, -5.8431E-08 ],
			"type": "VEC3"
		},
		{
			"bufferView": 2,
			"byteOffset": 334680,
			"componentType": 5126,
			"count": 4042,
			"max": [ 1, 1, 1 ],
			"min": [ -1, -1, -1 ],
			"type": "VEC3"
		},
		{
			"bufferView": 1,
			"byteOffset": 95392,
			"componentType": 5126,
			"count": 4042,
			"max": [ 0.9999932, 0.9907112 ],
			"min": [ 0, 0 ],
			"type": "VEC2"
		},
		{
			"bufferView": 3,
			"byteOffset": 190784,
			"componentType": 5126,
			"count": 4042,
			"max": [ 1, 1, 1, 1 ],
			"min": [ -1, -1, -1, -1 ],
			"type": "VEC4"
		},
		{
			"bufferView": 0,
			"byteOffset": 97944,
			"componentType": 5125,
			"count": 1716,
			"max": [ 499 ],
			"min": [ 0 ],
			"type": "SCALAR"
		},
		{
			"bufferView": 0,
			"byteOffset": 104808,
			"componentType": 5125,
			"count": 120,
			"max": [ 609 ],
			"min": [ 500 ],
			"type": "SCALAR"
		},
		{
			"bufferView": 0,
			"byteOffset": 105288,
			"componentType": 5125,
			"count": 264,
			"max": [ 803 ],
			"min": [ 610 ],
			"type": "SCALAR"
		},
		{
			"bufferView": 0,
			"byteOffset": 106344,
			"componentType": 5125,
			"count": 3546,
			"max": [ 3961 ],
			"min": [ 804 ],
			"type": "SCALAR"
		},
		{
			"bufferView": 0,
			"byteOffset": 120528,
			"componentType": 5125,
			"count": 36,
			"max": [ 3995 ],
			"min": [ 3962 ],
			"type": "SCALAR"
		},
		{
			"bufferView": 0,
			"byteOffset": 120672,
			"componentType": 5125,
			"count": 48,
			"max": [ 4041 ],
			"min": [ 3996 ],
			"type": "SCALAR"
		},
		{
			"bufferView": 2,
			"byteOffset": 383184,
			"componentType": 5126,
			"count": 176,
			"max": [ 0.1807014, 2.892143, 0.4744893 ],
			"min": [ -0.1828608, 0, -0.4720854 ],
			"type": "VEC3"
		},
		{
			"bufferView": 2,
			"byteOffset": 385296,
			"componentType": 5126,
			"count": 176,
			"max": [ 1, 1, 1 ],
			"min": [ -1, -1, -1 ],
			"type": "VEC3"
		},
		{
			"bufferView": 1,
			"byteOffset": 127728,
			"componentType": 5126,
			"count": 176,
			"max": [ 0.7205601, 0.7146785 ],
			"min": [ 0.3216465, 0.0703153 ],
			"type": "VEC2"
		},
		{
			"bufferView": 3,
			"byteOffset": 255456,
			"componentType": 5126,
			"count": 176,
			"max": [ 0.9989756, 0.5666285, 0.9523933, 1 ],
			"min": [ -0.9161447, -0.6176014, -1, -1 ],
			"type": "VEC4"
		},
		{
			"bufferView": 0,
			"byteOffset": 120864,
			"componentType": 5125,
			"count": 654,
			"max": [ 175 ],
			"min": [ 0 ],
			"type": "SCALAR"
		},
		{
			"bufferView": 2,
			"byteOffset": 387408,
			"componentType": 5126,
			"count": 188,
			"max": [ 0.4956609, 0.7321222, 0.4312335 ],
			"min": [ -0.4956609, 0, -0.1574378 ],
			"type": "VEC3"
		},
		{
			"bufferView": 2,
			"byteOffset": 389664,
			"componentType": 5126,
			"count": 188,
			"max": [ 1, 1, 1 ],
			"min": [ -1, -1, -0.9771234 ],
			"type": "VEC3"
		},
		{
			"bufferView": 1,
			"byteOffset": 129136,
			"componentType": 5126,
			"count": 188,
			"max": [ 0.8424496, 0.7034982 ],
			"min": [ 0.1575505, 0.267881 ],
			"type": "VEC2"
		},
		{
			"bufferView": 3,
			"byteOffset": 258272,
			"componentType": 5126,
			"count": 188,
			"max": [ 0.9768928, 0.642025, 0.9387383, 1 ],
			"min": [ -0.6234272, -0.6385379, -0.4128433, -1 ],
			"type": "VEC4"
		},
		{
			"bufferView": 0,
			"byteOffset": 123480,
			"componentType": 5125,
			"count": 582,
			"max": [ 187 ],
			"min": [ 0 ],
			"type": "SCALAR"
		}
	],
	"buffers": [
		{
			"byteLength": 909648,
			"uri": "Terra.bin"
		}
	],
	"bufferViews": [
		{
			"buffer": 0,
			"byteLength": 125808,
			"target": 34963,
			"byteOffset": 783840
		},
		{
			"buffer": 0,
			"byteLength": 130640,
			"target": 34962,
			"byteStride": 8,
			"byteOffset": 0
		},
		{
			"buffer": 0,
			"byteLength": 391920,
			"target": 34962,
			"byteStride": 12,
			"byteOffset": 130640
		},
		{
			"buffer": 0,
			"byteLength": 261280,
			"target": 34962,
			"byteStride": 16,
			"byteOffset": 522560
		}
	],
	"images": [
		{
			"uri": "Assets/Terra.Textures/foil_normal.jpg"
		},
		{
			"uri": "Assets/Terra.Textures/terra_dishes_ao.jpg"
		},
		{
			"uri": "Assets/Terra.Textures/terra_doodads_ao.jpg"
		},
		{
			"uri": "Assets/Terra.Textures/terra_atlas_albedo.jpg"
		},
		{
			"uri": "Assets/Terra.Textures/terra_atlas_normal.jpg"
		},
		{
			"uri": "Assets/Terra.Textures/terra_atlas_pbr.metallicRoughness_converted_metalRoughness.jpg"
		}
	],
	"materials": [
		{
			"pbrMetallicRoughness": {
				"baseColorFactor": [0.9999999, 0.6583749, 0.08228274, 1],
				"metallicFactor": 1,
				"roughnessFactor": 0.3
			},
			"normalTexture" : {
				"index" : 0,
				"texCoord" : 0,
				"scale" : 1
			},
			"emissiveFactor": [0, 0, 0],
			"doubleSided": false,
			"name": "foil_gold"
		},
		{
			"pbrMetallicRoughness": {
				"baseColorFactor": [1, 0.9999995, 1, 1],
				"metallicFactor": 1,
				"roughnessFactor": 0.3
			},
			"normalTexture" : {
				"index" : 0,
				"texCoord" : 0,
				"scale" : 1
			},
			"emissiveFactor": [0, 0, 0],
			"doubleSided": false,
			"name": "foil_silver"
		},
		{
			"pbrMetallicRoughness": {
				"baseColorFactor": [0, 0, 0, 1],
				"metallicFactor": 0,
				"roughnessFactor": 0.5
			},
			"emissiveFactor": [0, 0, 0],
			"doubleSided": false,
			"name": "dark"
		},
		{
			"pbrMetallicRoughness": {
				"baseColorTexture" : {
					"index" : 1,
					"texCoord" : 0
				},
				"baseColorFactor": [1, 1, 1, 1],
				"metallicFactor": 0,
				"roughnessFactor": 0.5
			},
			"emissiveFactor": [0, 0, 0],
			"doubleSided": false,
			"name": "dishesAO_1024"
		},
		{
			"pbrMetallicRoughness": {
				"baseColorTexture" : {
					"index" : 2,
					"texCoord" : 0
				},
				"baseColorFactor": [1, 1, 1, 1],
				"metallicFactor": 0.5,
				"roughnessFactor": 0.5
			},
			"emissiveFactor": [0, 0, 0],
			"doubleSided": false,
			"name": "doodadsAO_1024"
		},
		{
			"pbrMetallicRoughness": {
				"baseColorTexture" : {
					"index" : 3,
					"texCoord" : 0
				},
				"baseColorFactor": [1, 1, 1, 1],
				"metallicFactor": 1,
				"roughnessFactor": 1
			},
			"normalTexture" : {
				"index" : 4,
				"texCoord" : 0,
				"scale" : 1
			},
			"emissiveFactor": [0, 0, 0],
			"doubleSided": false,
			"name": "atlas"
		},
		{
			"pbrMetallicRoughness": {
				"baseColorFactor": [1, 0.62, 0.05000001, 1],
				"metallicFactor": 1,
				"roughnessFactor": 0.2
			},
			"emissiveFactor": [0, 0, 0],
			"doubleSided": false,
			"name": "gold"
		},
		{
			"pbrMetallicRoughness": {
				"baseColorFactor": [0.05332682, 0.05332682, 0.05332682, 1],
				"metallicFactor": 1,
				"roughnessFactor": 0.2
			},
			"emissiveFactor": [0, 0, 0],
			"doubleSided": false,
			"name": "base_metal"
		},
		{
			"pbrMetallicRoughness": {
				"baseColorTexture" : {
					"index" : 3,
					"texCoord" : 0
				},
				"baseColorFactor": [1, 1, 1, 1],
				"metallicRoughnessTexture" : {
					"index" : 5,
					"texCoord" : 0
				},
				"metallicFactor": 1,
				"roughnessFactor": 1
			},
			"normalTexture" : {
				"index" : 4,
				"texCoord" : 0,
				"scale" : 0.5
			},
			"emissiveFactor": [0, 0, 0],
			"doubleSided": false,
			"name": "shiny_panels"
		}
	],
	"meshes": [
		{
			"name": "mesh_Cylinder.000_-14860BUS",
			"primitives": [
				{
					"attributes": {
						"POSITION": 0,
						"NORMAL": 1,
						"TEXCOORD_0": 2,
						"TANGENT": 3
					},
					"indices": 4,
					"material": 0,
					"mode": 4
				},
				{
					"attributes": {
						"POSITION": 0,
						"NORMAL": 1,
						"TEXCOORD_0": 2,
						"TANGENT": 3
					},
					"indices": 5,
					"material": 1,
					"mode": 4
				},
				{
					"attributes": {
						"POSITION": 0,
						"NORMAL": 1,
						"TEXCOORD_0": 2,
						"TANGENT": 3
					},
					"indices": 6,
					"material": 2,
					"mode": 4
				},
				{
					"attributes": {
						"POSITION": 0,
						"NORMAL": 1,
						"TEXCOORD_0": 2,
						"TANGENT": 3
					},
					"indices": 7,
					"material": 3,
					"mode": 4
				},
				{
					"attributes": {
						"POSITION": 0,
						"NORMAL": 1,
						"TEXCOORD_0": 2,
						"TANGENT": 3
					},
					"indices": 8,
					"material": 4,
					"mode": 4
				}
			]
		},
		{
			"name": "mesh_Cylinder.002_-14852Dish_Top",
			"primitives": [
				{
					"attributes": {
						"POSITION": 9,
						"NORMAL": 10,
						"TEXCOORD_0": 11,
						"TANGENT": 12
					},
					"indices": 13,
					"material": 3,
					"mode": 4
				},
				{
					"attributes": {
						"POSITION": 9,
						"NORMAL": 10,
						"TEXCOORD_0": 11,
						"TANGENT": 12
					},
					"indices": 14,
					"material": 0,
					"mode": 4
				},
				{
					"attributes": {
						"POSITION": 9,
						"NORMAL": 10,
						"TEXCOORD_0": 11,
						"TANGENT": 12
					},
					"indices": 15,
					"material": 2,
					"mode": 4
				}
			]
		},
		{
			"name": "mesh_Cube.001_-14856Solar_Panel_Assembly",
			"primitives": [
				{
					"attributes": {
						"POSITION": 16,
						"NORMAL": 17,
						"TEXCOORD_0": 18,
						"TANGENT": 19
					},
					"indices": 20,
					"material": 0,
					"mode": 4
				},
				{
					"attributes": {
						"POSITION": 16,
						"NORMAL": 17,
						"TEXCOORD_0": 18,
						"TANGENT": 19
					},
					"indices": 21,
					"material": 5,
					"mode": 4
				},
				{
					"attributes": {
						"POSITION": 16,
						"NORMAL": 17,
						"TEXCOORD_0": 18,
						"TANGENT": 19
					},
					"indices": 22,
					"material": 6,
					"mode": 4
				},
				{
					"attributes": {
						"POSITION": 16,
						"NORMAL": 17,
						"TEXCOORD_0": 18,
						"TANGENT": 19
					},
					"indices": 23,
					"material": 7,
					"mode": 4
				},
				{
					"attributes": {
						"POSITION": 16,
						"NORMAL": 17,
						"TEXCOORD_0": 18,
						"TANGENT": 19
					},
					"indices": 24,
					"material": 2,
					"mode": 4
				},
				{
					"attributes": {
						"POSITION": 16,
						"NORMAL": 17,
						"TEXCOORD_0": 18,
						"TANGENT": 19
					},
					"indices": 25,
					"material": 8,
					"mode": 4
				}
			]
		},
		{
			"name": "mesh_Cylinder.001_-14854Dish_Top_Base",
			"primitives": [
				{
					"attributes": {
						"POSITION": 26,
						"NORMAL": 27,
						"TEXCOORD_0": 28,
						"TANGENT": 29
					},
					"indices": 30,
					"material": 0,
					"mode": 4
				}
			]
		},
		{
			"name": "mesh_Cube.000_-14858Solar_Panel_Base",
			"primitives": [
				{
					"attributes": {
						"POSITION": 31,
						"NORMAL": 32,
						"TEXCOORD_0": 33,
						"TANGENT": 34
					},
					"indices": 35,
					"material": 0,
					"mode": 4
				}
			]
		}
	],
	"nodes": [
		{
			"name": "UnityGlTF_root",
			"children": [
				1
			]
		},
		{
			"name": "node_Terra_-16288",
			"children": [
				2
			],
			"matrix": [1.788139E-07, 0, -0.9999999, 0, 0, 1, 0, 0, 0.9999999, 0, 1.788139E-07, 0, 0, 0, 0, 1]
		},
		{
			"name": "node_BUS_-16290",
			"mesh": 0,
			"children": [
				5,
				6
			]
		},
		{
			"name": "node_Dish_Top_-16300",
			"mesh": 1,
			"translation": [ -0.1852729, 2.337233, 0.001201882]
		},
		{
			"name": "node_Solar_Panel_Assembly_-16308",
			"mesh": 2,
			"translation": [ -0.01088451, 0.6250697, 0.2623104]
		},
		{
			"name": "node_Dish_Top_Base_-16294",
			"mesh": 3,
			"children": [
				3
			],
			"translation": [ -0.5290837, 0.5161882, -0.00120194]
		},
		{
			"name": "node_Solar_Panel_Base_-16296",
			"mesh": 4,
			"children": [
				4
			],
			"translation": [ -0.2183419, 0.5327393, 0.6890838]
		}
	],
	"samplers": [
		{
			"magFilter": 9729,
			"minFilter": 9985,
			"wrapS": 10497,
			"wrapT": 10497
		}
	],
	"scenes": [
		{
			"name":"defaultScene",
			"nodes": [
				0
			]
		}
	],
	"scene": 0,
	"textures": [
		{
			"sampler": 0,
			"source": 0
		},
		{
			"sampler": 0,
			"source": 1
		},
		{
			"sampler": 0,
			"source": 2
		},
		{
			"sampler": 0,
			"source": 3
		},
		{
			"sampler": 0,
			"source": 4
		},
		{
			"sampler": 0,
			"source": 5
		}
	]
}