{
	"asset": {
		"generator": "Unity 2018.3.6f1",
		"extras": {
			"exporterVersion" : "2.2.1"
		},
		"version": "2.0"
	},
	"accessors": [
		{
			"bufferView": 2,
			"byteOffset": 0,
			"componentType": 5126,
			"count": 4213,
			"max": [ 1.702114, 1.096095, 0.806514 ],
			"min": [ -1.702114, -1.096095, -0.806514 ],
			"type": "VEC3"
		},
		{
			"bufferView": 2,
			"byteOffset": 50556,
			"componentType": 5126,
			"count": 4213,
			"max": [ 1, 1, 1 ],
			"min": [ -1, -1, -1 ],
			"type": "VEC3"
		},
		{
			"bufferView": 1,
			"byteOffset": 0,
			"componentType": 5126,
			"count": 4213,
			"max": [ 0.9882214, 1.256396 ],
			"min": [ -0.06184876, -0.4959434 ],
			"type": "VEC2"
		},
		{
			"bufferView": 3,
			"byteOffset": 0,
			"componentType": 5126,
			"count": 4213,
			"max": [ 0.999983, 0.9999995, 0.9996548, 1 ],
			"min": [ -0.9280937, -0.9999899, -1, -1 ],
			"type": "VEC4"
		},
		{
			"bufferView": 0,
			"byteOffset": 0,
			"componentType": 5125,
			"count": 21210,
			"max": [ 4212 ],
			"min": [ 0 ],
			"type": "SCALAR"
		},
		{
			"bufferView": 2,
			"byteOffset": 101112,
			"componentType": 5126,
			"count": 1035,
			"max": [ 0.4764801, 0.7648666, 0.4813336 ],
			"min": [ -0.4224479, -0.360023, -0.4273509 ],
			"type": "VEC3"
		},
		{
			"bufferView": 2,
			"byteOffset": 113532,
			"componentType": 5126,
			"count": 1035,
			"max": [ 1, 1, 1 ],
			"min": [ -1, -1, -1 ],
			"type": "VEC3"
		},
		{
			"bufferView": 1,
			"byteOffset": 33704,
			"componentType": 5126,
			"count": 1035,
			"max": [ 1, 1 ],
			"min": [ 0, 0 ],
			"type": "VEC2"
		},
		{
			"bufferView": 3,
			"byteOffset": 67408,
			"componentType": 5126,
			"count": 1035,
			"max": [ 1, 1, 1, 1 ],
			"min": [ -1, -0.7313682, -1, -1 ],
			"type": "VEC4"
		},
		{
			"bufferView": 0,
			"byteOffset": 84840,
			"componentType": 5125,
			"count": 288,
			"max": [ 71 ],
			"min": [ 0 ],
			"type": "SCALAR"
		},
		{
			"bufferView": 0,
			"byteOffset": 85992,
			"componentType": 5125,
			"count": 1050,
			"max": [ 311 ],
			"min": [ 72 ],
			"type": "SCALAR"
		},
		{
			"bufferView": 0,
			"byteOffset": 90192,
			"componentType": 5125,
			"count": 486,
			"max": [ 618 ],
			"min": [ 312 ],
			"type": "SCALAR"
		},
		{
			"bufferView": 0,
			"byteOffset": 92136,
			"componentType": 5125,
			"count": 408,
			"max": [ 918 ],
			"min": [ 619 ],
			"type": "SCALAR"
		},
		{
			"bufferView": 0,
			"byteOffset": 93768,
			"componentType": 5125,
			"count": 210,
			"max": [ 1034 ],
			"min": [ 919 ],
			"type": "SCALAR"
		},
		{
			"bufferView": 2,
			"byteOffset": 125952,
			"componentType": 5126,
			"count": 10218,
			"max": [ 0.05920739, 0.004367683, 4.8106 ],
			"min": [ -2.017073, -0.3379752, 1.446326E-08 ],
			"type": "VEC3"
		},
		{
			"bufferView": 2,
			"byteOffset": 248568,
			"componentType": 5126,
			"count": 10218,
			"max": [ 1, 1, 1 ],
			"min": [ -1, -1, -1 ],
			"type": "VEC3"
		},
		{
			"bufferView": 1,
			"byteOffset": 41984,
			"componentType": 5126,
			"count": 10218,
			"max": [ 1, 1 ],
			"min": [ 0, 0 ],
			"type": "VEC2"
		},
		{
			"bufferView": 3,
			"byteOffset": 83968,
			"componentType": 5126,
			"count": 10218,
			"max": [ 1, 1, 1, 1 ],
			"min": [ -1, -1, -1, -1 ],
			"type": "VEC4"
		},
		{
			"bufferView": 0,
			"byteOffset": 94608,
			"componentType": 5125,
			"count": 696,
			"max": [ 479 ],
			"min": [ 0 ],
			"type": "SCALAR"
		},
		{
			"bufferView": 0,
			"byteOffset": 97392,
			"componentType": 5125,
			"count": 6582,
			"max": [ 5040 ],
			"min": [ 480 ],
			"type": "SCALAR"
		},
		{
			"bufferView": 0,
			"byteOffset": 123720,
			"componentType": 5125,
			"count": 7524,
			"max": [ 10217 ],
			"min": [ 5041 ],
			"type": "SCALAR"
		},
		{
			"bufferView": 2,
			"byteOffset": 371184,
			"componentType": 5126,
			"count": 13787,
			"max": [ 2.403141, 0.6097246, 0.4531786 ],
			"min": [ -1.19566, -1.705059, -2.081013 ],
			"type": "VEC3"
		},
		{
			"bufferView": 2,
			"byteOffset": 536628,
			"componentType": 5126,
			"count": 13787,
			"max": [ 1, 1, 1 ],
			"min": [ -1, -1, -1 ],
			"type": "VEC3"
		},
		{
			"bufferView": 1,
			"byteOffset": 123728,
			"componentType": 5126,
			"count": 13787,
			"max": [ 1.121112, 1 ],
			"min": [ 0, 0 ],
			"type": "VEC2"
		},
		{
			"bufferView": 3,
			"byteOffset": 247456,
			"componentType": 5126,
			"count": 13787,
			"max": [ 1, 1, 1, 1 ],
			"min": [ -1, -1, -1, -1 ],
			"type": "VEC4"
		},
		{
			"bufferView": 0,
			"byteOffset": 153816,
			"componentType": 5125,
			"count": 204,
			"max": [ 156 ],
			"min": [ 0 ],
			"type": "SCALAR"
		},
		{
			"bufferView": 0,
			"byteOffset": 154632,
			"componentType": 5125,
			"count": 28548,
			"max": [ 12069 ],
			"min": [ 157 ],
			"type": "SCALAR"
		},
		{
			"bufferView": 0,
			"byteOffset": 268824,
			"componentType": 5125,
			"count": 1836,
			"max": [ 12944 ],
			"min": [ 12070 ],
			"type": "SCALAR"
		},
		{
			"bufferView": 0,
			"byteOffset": 276168,
			"componentType": 5125,
			"count": 1560,
			"max": [ 13786 ],
			"min": [ 12945 ],
			"type": "SCALAR"
		},
		{
			"bufferView": 2,
			"byteOffset": 702072,
			"componentType": 5126,
			"count": 336,
			"max": [ 0.7439946, 0.003832763, 5.260829 ],
			"min": [ -0.7426155, -0.01014933, 0.4995623 ],
			"type": "VEC3"
		},
		{
			"bufferView": 2,
			"byteOffset": 706104,
			"componentType": 5126,
			"count": 336,
			"max": [ 1, 1, 1 ],
			"min": [ -1, -1, -1 ],
			"type": "VEC3"
		},
		{
			"bufferView": 1,
			"byteOffset": 234024,
			"componentType": 5126,
			"count": 336,
			"max": [ 0.9997425, 0.5014683 ],
			"min": [ -0.0002574921, 0.01112723 ],
			"type": "VEC2"
		},
		{
			"bufferView": 3,
			"byteOffset": 468048,
			"componentType": 5126,
			"count": 336,
			"max": [ 1, 8.194929E-07, 1, 1 ],
			"min": [ -1.424254E-06, -1.191957E-06, -1, -1 ],
			"type": "VEC4"
		},
		{
			"bufferView": 0,
			"byteOffset": 282408,
			"componentType": 5125,
			"count": 192,
			"max": [ 157 ],
			"min": [ 0 ],
			"type": "SCALAR"
		},
		{
			"bufferView": 0,
			"byteOffset": 283176,
			"componentType": 5125,
			"count": 192,
			"max": [ 335 ],
			"min": [ 158 ],
			"type": "SCALAR"
		}
	],
	"buffers": [
		{
			"byteLength": 1704216,
			"uri": "ICESat.bin"
		}
	],
	"bufferViews": [
		{
			"buffer": 0,
			"byteLength": 283944,
			"target": 34963,
			"byteOffset": 1420272
		},
		{
			"buffer": 0,
			"byteLength": 236712,
			"target": 34962,
			"byteStride": 8,
			"byteOffset": 0
		},
		{
			"buffer": 0,
			"byteLength": 710136,
			"target": 34962,
			"byteStride": 12,
			"byteOffset": 236712
		},
		{
			"buffer": 0,
			"byteLength": 473424,
			"target": 34962,
			"byteStride": 16,
			"byteOffset": 946848
		}
	],
	"images": [
		{
			"uri": "Assets/ICESat2.Textures/foil_normal.jpg"
		},
		{
			"uri": "Assets/ICESat2.Textures/icesat2_albedo.jpg"
		},
		{
			"uri": "Assets/ICESat2.Textures/icesat2_pbr.metallicRoughness_converted_metalRoughness.jpg"
		},
		{
			"uri": "Assets/ICESat2.Textures/icesat2_normal.jpg"
		},
		{
			"uri": "Assets/ICESat2.Textures/corrugated_normal.jpg"
		}
	],
	"materials": [
		{
			"pbrMetallicRoughness": {
				"baseColorFactor": [1, 0.9999995, 1, 1],
				"metallicFactor": 1,
				"roughnessFactor": 0.3
			},
			"normalTexture" : {
				"index" : 0,
				"texCoord" : 0,
				"scale" : 1
			},
			"emissiveFactor": [0, 0, 0],
			"doubleSided": false,
			"name": "foil_silver.010"
		},
		{
			"pbrMetallicRoughness": {
				"baseColorFactor": [0.01960665, 0.01960665, 0.01960665, 1],
				"metallicFactor": 0,
				"roughnessFactor": 0.6
			},
			"normalTexture" : {
				"index" : 0,
				"texCoord" : 0,
				"scale" : 1
			},
			"emissiveFactor": [0, 0, 0],
			"doubleSided": false,
			"name": "black_krinkle.003"
		},
		{
			"pbrMetallicRoughness": {
				"baseColorFactor": [0.01738648, 0.01738648, 0.01738648, 1],
				"metallicFactor": 1,
				"roughnessFactor": 0.5
			},
			"emissiveFactor": [0, 0, 0],
			"doubleSided": false,
			"name": "black metal"
		},
		{
			"pbrMetallicRoughness": {
				"baseColorFactor": [0.456411, 0.4178851, 0.4452012, 1],
				"metallicFactor": 1,
				"roughnessFactor": 0.3
			},
			"emissiveFactor": [0, 0, 0],
			"doubleSided": false,
			"name": "Metal_Material"
		},
		{
			"pbrMetallicRoughness": {
				"baseColorFactor": [0.01108565, 0.01108565, 0.01108565, 1],
				"metallicFactor": 0,
				"roughnessFactor": 0.5
			},
			"emissiveFactor": [0, 0, 0],
			"doubleSided": false,
			"name": "Dark Mat"
		},
		{
			"pbrMetallicRoughness": {
				"baseColorFactor": [0.92, 0.92, 0.92, 1],
				"metallicFactor": 0.2,
				"roughnessFactor": 0.2
			},
			"emissiveFactor": [0, 0, 0],
			"doubleSided": false,
			"name": "white_paint"
		},
		{
			"pbrMetallicRoughness": {
				"baseColorFactor": [0.6196079, 0.4588235, 0.0627451, 1],
				"metallicFactor": 1,
				"roughnessFactor": 0.3
			},
			"emissiveFactor": [0, 0, 0],
			"doubleSided": false,
			"name": "Gold Metal"
		},
		{
			"pbrMetallicRoughness": {
				"baseColorTexture" : {
					"index" : 1,
					"texCoord" : 0
				},
				"baseColorFactor": [1, 1, 1, 1],
				"metallicRoughnessTexture" : {
					"index" : 2,
					"texCoord" : 0
				},
				"metallicFactor": 1,
				"roughnessFactor": 1
			},
			"normalTexture" : {
				"index" : 3,
				"texCoord" : 0,
				"scale" : 0.1
			},
			"emissiveFactor": [0, 0, 0],
			"doubleSided": false,
			"name": "ICESat2 Mat"
		},
		{
			"pbrMetallicRoughness": {
				"baseColorFactor": [0.99, 0.6307572, 0.05126952, 1],
				"metallicFactor": 1,
				"roughnessFactor": 0.2
			},
			"normalTexture" : {
				"index" : 4,
				"texCoord" : 0,
				"scale" : 1
			},
			"emissiveFactor": [0, 0, 0],
			"doubleSided": false,
			"name": "array gold trim"
		}
	],
	"meshes": [
		{
			"name": "mesh_Cylinder.019_-1374BUS",
			"primitives": [
				{
					"attributes": {
						"POSITION": 0,
						"NORMAL": 1,
						"TEXCOORD_0": 2,
						"TANGENT": 3
					},
					"indices": 4,
					"material": 0,
					"mode": 4
				}
			]
		},
		{
			"name": "mesh_ICESat2.000_-1376Atlas scope",
			"primitives": [
				{
					"attributes": {
						"POSITION": 5,
						"NORMAL": 6,
						"TEXCOORD_0": 7,
						"TANGENT": 8
					},
					"indices": 9,
					"material": 0,
					"mode": 4
				},
				{
					"attributes": {
						"POSITION": 5,
						"NORMAL": 6,
						"TEXCOORD_0": 7,
						"TANGENT": 8
					},
					"indices": 10,
					"material": 1,
					"mode": 4
				},
				{
					"attributes": {
						"POSITION": 5,
						"NORMAL": 6,
						"TEXCOORD_0": 7,
						"TANGENT": 8
					},
					"indices": 11,
					"material": 2,
					"mode": 4
				},
				{
					"attributes": {
						"POSITION": 5,
						"NORMAL": 6,
						"TEXCOORD_0": 7,
						"TANGENT": 8
					},
					"indices": 12,
					"material": 3,
					"mode": 4
				},
				{
					"attributes": {
						"POSITION": 5,
						"NORMAL": 6,
						"TEXCOORD_0": 7,
						"TANGENT": 8
					},
					"indices": 13,
					"material": 4,
					"mode": 4
				}
			]
		},
		{
			"name": "mesh_ICESat2.001_-1378hinges",
			"primitives": [
				{
					"attributes": {
						"POSITION": 14,
						"NORMAL": 15,
						"TEXCOORD_0": 16,
						"TANGENT": 17
					},
					"indices": 18,
					"material": 5,
					"mode": 4
				},
				{
					"attributes": {
						"POSITION": 14,
						"NORMAL": 15,
						"TEXCOORD_0": 16,
						"TANGENT": 17
					},
					"indices": 19,
					"material": 3,
					"mode": 4
				},
				{
					"attributes": {
						"POSITION": 14,
						"NORMAL": 15,
						"TEXCOORD_0": 16,
						"TANGENT": 17
					},
					"indices": 20,
					"material": 2,
					"mode": 4
				}
			]
		},
		{
			"name": "mesh_Cube.023_-1380instruments",
			"primitives": [
				{
					"attributes": {
						"POSITION": 21,
						"NORMAL": 22,
						"TEXCOORD_0": 23,
						"TANGENT": 24
					},
					"indices": 25,
					"material": 6,
					"mode": 4
				},
				{
					"attributes": {
						"POSITION": 21,
						"NORMAL": 22,
						"TEXCOORD_0": 23,
						"TANGENT": 24
					},
					"indices": 26,
					"material": 7,
					"mode": 4
				},
				{
					"attributes": {
						"POSITION": 21,
						"NORMAL": 22,
						"TEXCOORD_0": 23,
						"TANGENT": 24
					},
					"indices": 27,
					"material": 3,
					"mode": 4
				},
				{
					"attributes": {
						"POSITION": 21,
						"NORMAL": 22,
						"TEXCOORD_0": 23,
						"TANGENT": 24
					},
					"indices": 28,
					"material": 2,
					"mode": 4
				}
			]
		},
		{
			"name": "mesh_Cube.022_-1382solar_panels",
			"primitives": [
				{
					"attributes": {
						"POSITION": 29,
						"NORMAL": 30,
						"TEXCOORD_0": 31,
						"TANGENT": 32
					},
					"indices": 33,
					"material": 8,
					"mode": 4
				},
				{
					"attributes": {
						"POSITION": 29,
						"NORMAL": 30,
						"TEXCOORD_0": 31,
						"TANGENT": 32
					},
					"indices": 34,
					"material": 7,
					"mode": 4
				}
			]
		}
	],
	"nodes": [
		{
			"name": "UnityGlTF_root",
			"children": [
				1
			]
		},
		{
			"name": "node_ICESat2_-2804",
			"children": [
				2
			],
			"matrix": [-1.192093E-07, 0, 1, 0, 0, -1, 0, 0, 1, 0, -1.192093E-07, 0, 0, 0, 0, 1]
		},
		{
			"name": "node_BUS_-2806",
			"mesh": 0,
			"children": [
				3,
				4,
				5,
				6
			]
		},
		{
			"name": "node_Atlas scope_-2810",
			"mesh": 1,
			"translation": [ 0.4970027, 0.08468384, 0.05733088]
		},
		{
			"name": "node_hinges_-2812",
			"mesh": 2,
			"translation": [ 0.7076257, 0.8430872, 0.5926244]
		},
		{
			"name": "node_instruments_-2814",
			"mesh": 3,
			"translation": [ -0.7349323, 0.5666399, 1.266986]
		},
		{
			"name": "node_solar_panels_-2816",
			"mesh": 4,
			"translation": [ -0.7349323, 0.5666399, 1.266986]
		}
	],
	"samplers": [
		{
			"magFilter": 9729,
			"minFilter": 9985,
			"wrapS": 10497,
			"wrapT": 10497
		}
	],
	"scenes": [
		{
			"name":"defaultScene",
			"nodes": [
				0
			]
		}
	],
	"scene": 0,
	"textures": [
		{
			"sampler": 0,
			"source": 0
		},
		{
			"sampler": 0,
			"source": 1
		},
		{
			"sampler": 0,
			"source": 2
		},
		{
			"sampler": 0,
			"source": 3
		},
		{
			"sampler": 0,
			"source": 4
		}
	]
}