{
	"asset": {
		"generator": "Unity 2018.3.6f1",
		"extras": {
			"exporterVersion" : "2.2.1"
		},
		"version": "2.0"
	},
	"accessors": [
		{
			"bufferView": 2,
			"byteOffset": 0,
			"componentType": 5126,
			"count": 134,
			"max": [ -0.2716052, 0.5164409, -1.330166 ],
			"min": [ -0.9929352, -0.1357917, -1.982399 ],
			"type": "VEC3"
		},
		{
			"bufferView": 2,
			"byteOffset": 1608,
			"componentType": 5126,
			"count": 134,
			"max": [ 1, 0.9999695, 0.9999695 ],
			"min": [ -1, -1, -1 ],
			"type": "VEC3"
		},
		{
			"bufferView": 1,
			"byteOffset": 0,
			"componentType": 5126,
			"count": 134,
			"max": [ 0, 0 ],
			"min": [ 0, 0 ],
			"type": "VEC2"
		},
		{
			"bufferView": 3,
			"byteOffset": 0,
			"componentType": 5126,
			"count": 134,
			"max": [ 1, 1, 0.0009022314, 1 ],
			"min": [ -3.661305E-07, -0.0006905325, -1, -1 ],
			"type": "VEC4"
		},
		{
			"bufferView": 0,
			"byteOffset": 0,
			"componentType": 5125,
			"count": 240,
			"max": [ 133 ],
			"min": [ 0 ],
			"type": "SCALAR"
		},
		{
			"bufferView": 2,
			"byteOffset": 3216,
			"componentType": 5126,
			"count": 6983,
			"max": [ 11.4835, 2.235779, 2.651261 ],
			"min": [ -1.921305, -1.54355, -2.044279 ],
			"type": "VEC3"
		},
		{
			"bufferView": 2,
			"byteOffset": 87012,
			"componentType": 5126,
			"count": 6983,
			"max": [ 1, 1, 1 ],
			"min": [ -1, -1, -1 ],
			"type": "VEC3"
		},
		{
			"bufferView": 1,
			"byteOffset": 1072,
			"componentType": 5126,
			"count": 6983,
			"max": [ 0.9944984, 0.9939138 ],
			"min": [ 0.004291066, 0.006844699 ],
			"type": "VEC2"
		},
		{
			"bufferView": 3,
			"byteOffset": 2144,
			"componentType": 5126,
			"count": 6983,
			"max": [ 1, 1, 1, 1 ],
			"min": [ -1, -1, -1, -1 ],
			"type": "VEC4"
		},
		{
			"bufferView": 0,
			"byteOffset": 960,
			"componentType": 5125,
			"count": 18552,
			"max": [ 6838 ],
			"min": [ 0 ],
			"type": "SCALAR"
		},
		{
			"bufferView": 0,
			"byteOffset": 75168,
			"componentType": 5125,
			"count": 24,
			"max": [ 6862 ],
			"min": [ 6839 ],
			"type": "SCALAR"
		},
		{
			"bufferView": 0,
			"byteOffset": 75264,
			"componentType": 5125,
			"count": 96,
			"max": [ 6958 ],
			"min": [ 6863 ],
			"type": "SCALAR"
		},
		{
			"bufferView": 0,
			"byteOffset": 75648,
			"componentType": 5125,
			"count": 24,
			"max": [ 6982 ],
			"min": [ 6959 ],
			"type": "SCALAR"
		},
		{
			"bufferView": 2,
			"byteOffset": 170808,
			"componentType": 5126,
			"count": 829,
			"max": [ 0.7134838, 1.165053, 2.202805 ],
			"min": [ -0.9900854, -1.214881, -0.8481905 ],
			"type": "VEC3"
		},
		{
			"bufferView": 2,
			"byteOffset": 180756,
			"componentType": 5126,
			"count": 829,
			"max": [ 1, 1, 1 ],
			"min": [ -1, -1, -1 ],
			"type": "VEC3"
		},
		{
			"bufferView": 1,
			"byteOffset": 56936,
			"componentType": 5126,
			"count": 829,
			"max": [ 13.25141, 16.81198 ],
			"min": [ -0.011329, -0.02984965 ],
			"type": "VEC2"
		},
		{
			"bufferView": 3,
			"byteOffset": 113872,
			"componentType": 5126,
			"count": 829,
			"max": [ 1, 1, 1, 1 ],
			"min": [ -1, -1, -1, -1 ],
			"type": "VEC4"
		},
		{
			"bufferView": 0,
			"byteOffset": 75744,
			"componentType": 5125,
			"count": 1026,
			"max": [ 828 ],
			"min": [ 0 ],
			"type": "SCALAR"
		},
		{
			"bufferView": 2,
			"byteOffset": 190704,
			"componentType": 5126,
			"count": 1360,
			"max": [ 11.02316, 2.259215, 1.808266 ],
			"min": [ 2.451267, 0.2359926, 0.4511954 ],
			"type": "VEC3"
		},
		{
			"bufferView": 2,
			"byteOffset": 207024,
			"componentType": 5126,
			"count": 1360,
			"max": [ 0.9755241, 0.244087, 1 ],
			"min": [ -0.9755241, -0.9999695, -1 ],
			"type": "VEC3"
		},
		{
			"bufferView": 1,
			"byteOffset": 63568,
			"componentType": 5126,
			"count": 1360,
			"max": [ 0, 0 ],
			"min": [ 0, 0 ],
			"type": "VEC2"
		},
		{
			"bufferView": 3,
			"byteOffset": 127136,
			"componentType": 5126,
			"count": 1360,
			"max": [ 1, 0.9999985, 0.1082947, 1 ],
			"min": [ -0.1827874, -0.09418944, -1, -1 ],
			"type": "VEC4"
		},
		{
			"bufferView": 0,
			"byteOffset": 79848,
			"componentType": 5125,
			"count": 4032,
			"max": [ 1359 ],
			"min": [ 0 ],
			"type": "SCALAR"
		},
		{
			"bufferView": 2,
			"byteOffset": 223344,
			"componentType": 5126,
			"count": 1694,
			"max": [ 1.314433, 1.307052, 2.476361 ],
			"min": [ -1.100784, -1.202336, -2.048384 ],
			"type": "VEC3"
		},
		{
			"bufferView": 2,
			"byteOffset": 243672,
			"componentType": 5126,
			"count": 1694,
			"max": [ 1, 1, 1 ],
			"min": [ -1, -1, -1 ],
			"type": "VEC3"
		},
		{
			"bufferView": 1,
			"byteOffset": 74448,
			"componentType": 5126,
			"count": 1694,
			"max": [ 1.026459, 1.19033 ],
			"min": [ -0.07696289, -0.06592309 ],
			"type": "VEC2"
		},
		{
			"bufferView": 3,
			"byteOffset": 148896,
			"componentType": 5126,
			"count": 1694,
			"max": [ 1, 1, 0.9990934, 1 ],
			"min": [ -0.9999955, -0.9902986, -0.9700873, -1 ],
			"type": "VEC4"
		},
		{
			"bufferView": 0,
			"byteOffset": 95976,
			"componentType": 5125,
			"count": 8157,
			"max": [ 1681 ],
			"min": [ 0 ],
			"type": "SCALAR"
		},
		{
			"bufferView": 0,
			"byteOffset": 128604,
			"componentType": 5125,
			"count": 48,
			"max": [ 1693 ],
			"min": [ 1682 ],
			"type": "SCALAR"
		}
	],
	"buffers": [
		{
			"byteLength": 656796,
			"uri": "Landsat.bin"
		}
	],
	"bufferViews": [
		{
			"buffer": 0,
			"byteLength": 128796,
			"target": 34963,
			"byteOffset": 528000
		},
		{
			"buffer": 0,
			"byteLength": 88000,
			"target": 34962,
			"byteStride": 8,
			"byteOffset": 0
		},
		{
			"buffer": 0,
			"byteLength": 264000,
			"target": 34962,
			"byteStride": 12,
			"byteOffset": 88000
		},
		{
			"buffer": 0,
			"byteLength": 176000,
			"target": 34962,
			"byteStride": 16,
			"byteOffset": 352000
		}
	],
	"images": [
		{
			"uri": "Assets/LandSat7.Textures/LandSat7_albedo.jpg"
		},
		{
			"uri": "Assets/LandSat7.Textures/LandSat7_normal.jpg"
		},
		{
			"uri": "Assets/LandSat7.Textures/LandSat7_pbr.metallicRoughness_converted_metalRoughness.jpg"
		},
		{
			"uri": "Assets/LandSat7.Textures/reflective_square_normal.jpg"
		},
		{
			"uri": "Assets/LandSat7.Textures/foil_n.jpg"
		}
	],
	"materials": [
		{
			"pbrMetallicRoughness": {
				"baseColorFactor": [0, 0, 0, 1],
				"metallicFactor": 0,
				"roughnessFactor": 0.9545454
			},
			"emissiveFactor": [0, 0, 0],
			"doubleSided": false,
			"name": "dark"
		},
		{
			"pbrMetallicRoughness": {
				"baseColorTexture" : {
					"index" : 0,
					"texCoord" : 0
				},
				"baseColorFactor": [1, 1, 1, 1],
				"metallicFactor": 1,
				"roughnessFactor": 1
			},
			"normalTexture" : {
				"index" : 1,
				"texCoord" : 0,
				"scale" : 1
			},
			"emissiveFactor": [0, 0, 0],
			"doubleSided": false,
			"name": "DIFFUSE Metal"
		},
		{
			"pbrMetallicRoughness": {
				"baseColorTexture" : {
					"index" : 0,
					"texCoord" : 0
				},
				"baseColorFactor": [1, 1, 1, 1],
				"metallicFactor": 1,
				"roughnessFactor": 1
			},
			"normalTexture" : {
				"index" : 1,
				"texCoord" : 0,
				"scale" : 1
			},
			"emissiveFactor": [0, 0, 0],
			"doubleSided": false,
			"name": "Diffuse NonMetal"
		},
		{
			"pbrMetallicRoughness": {
				"baseColorFactor": [0.6834995, 0.7098265, 0.873314, 1],
				"metallicFactor": 1,
				"roughnessFactor": 0.3818182
			},
			"emissiveFactor": [0, 0, 0],
			"doubleSided": false,
			"name": "aluminum.001"
		},
		{
			"pbrMetallicRoughness": {
				"baseColorTexture" : {
					"index" : 0,
					"texCoord" : 0
				},
				"baseColorFactor": [1, 1, 1, 1],
				"metallicRoughnessTexture" : {
					"index" : 2,
					"texCoord" : 0
				},
				"metallicFactor": 1,
				"roughnessFactor": 1
			},
			"normalTexture" : {
				"index" : 1,
				"texCoord" : 0,
				"scale" : 0.25
			},
			"emissiveFactor": [0, 0, 0],
			"doubleSided": false,
			"name": "shiny_panels"
		},
		{
			"pbrMetallicRoughness": {
				"baseColorFactor": [0.98, 0.98, 0.98, 1],
				"metallicFactor": 1,
				"roughnessFactor": 0.05000001
			},
			"normalTexture" : {
				"index" : 3,
				"texCoord" : 0,
				"scale" : 0.025
			},
			"emissiveFactor": [0, 0, 0],
			"doubleSided": false,
			"name": "mirror chrome.001"
		},
		{
			"pbrMetallicRoughness": {
				"baseColorFactor": [0.9999999, 0.6583749, 0.08228274, 1],
				"metallicFactor": 1,
				"roughnessFactor": 0.3
			},
			"normalTexture" : {
				"index" : 4,
				"texCoord" : 0,
				"scale" : 1
			},
			"emissiveFactor": [0, 0, 0],
			"doubleSided": false,
			"name": "foil_gold.001"
		}
	],
	"meshes": [
		{
			"name": "mesh_Cube.006_-3960etm_inner",
			"primitives": [
				{
					"attributes": {
						"POSITION": 0,
						"NORMAL": 1,
						"TEXCOORD_0": 2,
						"TANGENT": 3
					},
					"indices": 4,
					"material": 0,
					"mode": 4
				}
			]
		},
		{
			"name": "mesh_Cylinder.019_-3964instruments",
			"primitives": [
				{
					"attributes": {
						"POSITION": 5,
						"NORMAL": 6,
						"TEXCOORD_0": 7,
						"TANGENT": 8
					},
					"indices": 9,
					"material": 1,
					"mode": 4
				},
				{
					"attributes": {
						"POSITION": 5,
						"NORMAL": 6,
						"TEXCOORD_0": 7,
						"TANGENT": 8
					},
					"indices": 10,
					"material": 2,
					"mode": 4
				},
				{
					"attributes": {
						"POSITION": 5,
						"NORMAL": 6,
						"TEXCOORD_0": 7,
						"TANGENT": 8
					},
					"indices": 11,
					"material": 3,
					"mode": 4
				},
				{
					"attributes": {
						"POSITION": 5,
						"NORMAL": 6,
						"TEXCOORD_0": 7,
						"TANGENT": 8
					},
					"indices": 12,
					"material": 4,
					"mode": 4
				}
			]
		},
		{
			"name": "mesh_Geometry-external_har.037_-3966Reflectors",
			"primitives": [
				{
					"attributes": {
						"POSITION": 13,
						"NORMAL": 14,
						"TEXCOORD_0": 15,
						"TANGENT": 16
					},
					"indices": 17,
					"material": 5,
					"mode": 4
				}
			]
		},
		{
			"name": "mesh_Cylinder.012_-3962solar_cylinders",
			"primitives": [
				{
					"attributes": {
						"POSITION": 18,
						"NORMAL": 19,
						"TEXCOORD_0": 20,
						"TANGENT": 21
					},
					"indices": 22,
					"material": 3,
					"mode": 4
				}
			]
		},
		{
			"name": "mesh_Cube.007_-3968BUS",
			"primitives": [
				{
					"attributes": {
						"POSITION": 23,
						"NORMAL": 24,
						"TEXCOORD_0": 25,
						"TANGENT": 26
					},
					"indices": 27,
					"material": 6,
					"mode": 4
				},
				{
					"attributes": {
						"POSITION": 23,
						"NORMAL": 24,
						"TEXCOORD_0": 25,
						"TANGENT": 26
					},
					"indices": 28,
					"material": 0,
					"mode": 4
				}
			]
		}
	],
	"nodes": [
		{
			"name": "UnityGlTF_root",
			"children": [
				1
			]
		},
		{
			"name": "node_LandSat7_-5258",
			"children": [
				6
			],
			"matrix": [1, 0, -5.960463E-08, 0, 0, -1, 0, 0, -5.960463E-08, 0, -1, 0, 0, 0, 0, 1]
		},
		{
			"name": "node_etm_inner_-5264",
			"mesh": 0
		},
		{
			"name": "node_instruments_-5266",
			"mesh": 1,
			"children": [
				5
			]
		},
		{
			"name": "node_Reflectors_-5268",
			"mesh": 2
		},
		{
			"name": "node_solar_cylinders_-5278",
			"mesh": 3,
			"translation": [ 0.03508031, -0.1613473, -0.4341276]
		},
		{
			"name": "node_BUS_-5260",
			"mesh": 4,
			"children": [
				2,
				3,
				4
			]
		}
	],
	"samplers": [
		{
			"magFilter": 9729,
			"minFilter": 9985,
			"wrapS": 10497,
			"wrapT": 10497
		}
	],
	"scenes": [
		{
			"name":"defaultScene",
			"nodes": [
				0
			]
		}
	],
	"scene": 0,
	"textures": [
		{
			"sampler": 0,
			"source": 0
		},
		{
			"sampler": 0,
			"source": 1
		},
		{
			"sampler": 0,
			"source": 2
		},
		{
			"sampler": 0,
			"source": 3
		},
		{
			"sampler": 0,
			"source": 4
		}
	]
}